<mxfile host="65bd71144e">
    <diagram id="zUPW-lPW8UpApyTDiC9L" name="Page-1">
        <mxGraphModel dx="576" dy="432" grid="1" gridSize="10" guides="1" tooltips="1" connect="1" arrows="1" fold="1" page="1" pageScale="1" pageWidth="850" pageHeight="1100" background="#FFFFFF" math="0" shadow="0">
            <root>
                <mxCell id="0"/>
                <mxCell id="1" parent="0"/>
                <mxCell id="2" value="" style="rounded=0;whiteSpace=wrap;html=1;" parent="1" vertex="1">
                    <mxGeometry x="130" y="80" width="10" height="630" as="geometry"/>
                </mxCell>
                <mxCell id="3" value="" style="shape=umlActor;verticalLabelPosition=bottom;verticalAlign=top;html=1;outlineConnect=0;fontSize=10;fillColor=#e1d5e7;strokeColor=#9673a6;" parent="1" vertex="1">
                    <mxGeometry x="40" y="60" width="30" height="60" as="geometry"/>
                </mxCell>
                <mxCell id="4" value="Student" style="text;html=1;strokeColor=none;fillColor=none;align=center;verticalAlign=middle;whiteSpace=wrap;rounded=0;fontSize=10;" parent="1" vertex="1">
                    <mxGeometry x="15" y="120" width="80" height="30" as="geometry"/>
                </mxCell>
                <mxCell id="5" value="" style="rounded=0;whiteSpace=wrap;html=1;" parent="1" vertex="1">
                    <mxGeometry x="440" y="80" width="10" height="630" as="geometry"/>
                </mxCell>
                <mxCell id="6" value="" style="rounded=0;whiteSpace=wrap;html=1;" parent="1" vertex="1">
                    <mxGeometry x="740" y="80" width="10" height="630" as="geometry"/>
                </mxCell>
                <mxCell id="7" value="&lt;font style=&quot;font-size: 18px;&quot;&gt;System&amp;nbsp;&lt;/font&gt;" style="text;html=1;strokeColor=none;fillColor=none;align=center;verticalAlign=middle;whiteSpace=wrap;rounded=0;fontSize=10;" parent="1" vertex="1">
                    <mxGeometry x="402.5" y="17.5" width="85" height="45" as="geometry"/>
                </mxCell>
                <mxCell id="8" value="Database" style="text;html=1;strokeColor=none;fillColor=none;align=center;verticalAlign=middle;whiteSpace=wrap;rounded=0;fontSize=18;" parent="1" vertex="1">
                    <mxGeometry x="715" y="25" width="60" height="30" as="geometry"/>
                </mxCell>
                <mxCell id="9" value="&lt;span style=&quot;font-size: 16px;&quot;&gt;go to maintenance request page&lt;/span&gt;" style="text;html=1;strokeColor=none;fillColor=none;align=center;verticalAlign=middle;whiteSpace=wrap;rounded=0;fontSize=18;" parent="1" vertex="1">
                    <mxGeometry x="186.25" y="90" width="212.5" height="30" as="geometry"/>
                </mxCell>
                <mxCell id="10" value="" style="endArrow=classic;html=1;fontSize=18;" parent="1" edge="1">
                    <mxGeometry width="50" height="50" relative="1" as="geometry">
                        <mxPoint x="140" y="200" as="sourcePoint"/>
                        <mxPoint x="440" y="200" as="targetPoint"/>
                    </mxGeometry>
                </mxCell>
                <mxCell id="11" value="&lt;span style=&quot;font-size: 16px;&quot;&gt;submit maintenance request details&lt;/span&gt;" style="text;html=1;strokeColor=none;fillColor=none;align=center;verticalAlign=middle;whiteSpace=wrap;rounded=0;fontSize=18;" parent="1" vertex="1">
                    <mxGeometry x="182.5" y="150" width="210" height="30" as="geometry"/>
                </mxCell>
                <mxCell id="12" value="&lt;span style=&quot;font-size: 16px;&quot;&gt;validate the request&lt;/span&gt;" style="text;html=1;strokeColor=none;fillColor=none;align=center;verticalAlign=middle;whiteSpace=wrap;rounded=0;fontSize=18;" parent="1" vertex="1">
                    <mxGeometry x="487.5" y="220" width="216.25" height="30" as="geometry"/>
                </mxCell>
                <mxCell id="13" value="" style="endArrow=classic;html=1;fontSize=18;entryX=0.2;entryY=0.454;entryDx=0;entryDy=0;entryPerimeter=0;" parent="1" edge="1">
                    <mxGeometry width="50" height="50" relative="1" as="geometry">
                        <mxPoint x="450" y="411" as="sourcePoint"/>
                        <mxPoint x="740" y="411.4200000000001" as="targetPoint"/>
                    </mxGeometry>
                </mxCell>
                <mxCell id="14" value="record the request and confirm submission" style="text;html=1;align=center;verticalAlign=middle;whiteSpace=wrap;rounded=0;fontSize=16;" parent="1" vertex="1">
                    <mxGeometry x="472.5" y="370" width="242.5" height="30" as="geometry"/>
                </mxCell>
                <mxCell id="15" value="track request status using the assigned ID" style="text;html=1;strokeColor=none;fillColor=none;align=center;verticalAlign=middle;whiteSpace=wrap;rounded=0;fontSize=16;" parent="1" vertex="1">
                    <mxGeometry x="166.26" y="500" width="242.5" height="30" as="geometry"/>
                </mxCell>
                <mxCell id="16" value="&lt;span style=&quot;font-size: 16px;&quot;&gt;assign unique request ID&lt;/span&gt;" style="text;html=1;strokeColor=none;fillColor=none;align=center;verticalAlign=middle;whiteSpace=wrap;rounded=0;fontSize=18;" parent="1" vertex="1">
                    <mxGeometry x="179.38" y="300" width="216.25" height="30" as="geometry"/>
                </mxCell>
                <mxCell id="18" value="" style="endArrow=classic;html=1;fontSize=18;entryX=0.2;entryY=0.454;entryDx=0;entryDy=0;entryPerimeter=0;" parent="1" edge="1">
                    <mxGeometry width="50" height="50" relative="1" as="geometry">
                        <mxPoint x="160" y="350" as="sourcePoint"/>
                        <mxPoint x="139.99999999999983" y="350.18000000000006" as="targetPoint"/>
                    </mxGeometry>
                </mxCell>
                <mxCell id="20" value="" style="endArrow=classic;html=1;fontSize=18;" parent="1" edge="1">
                    <mxGeometry width="50" height="50" relative="1" as="geometry">
                        <mxPoint x="140" y="134.5" as="sourcePoint"/>
                        <mxPoint x="440" y="134.5" as="targetPoint"/>
                    </mxGeometry>
                </mxCell>
                <mxCell id="21" value="" style="endArrow=classic;html=1;fontSize=18;" parent="1" edge="1">
                    <mxGeometry width="50" height="50" relative="1" as="geometry">
                        <mxPoint x="448.75" y="640" as="sourcePoint"/>
                        <mxPoint x="738.75" y="641" as="targetPoint"/>
                    </mxGeometry>
                </mxCell>
                <mxCell id="22" value="update the request status as maintenance progresses" style="text;html=1;align=center;verticalAlign=middle;whiteSpace=wrap;rounded=0;fontSize=16;" parent="1" vertex="1">
                    <mxGeometry x="480" y="430" width="242.5" height="30" as="geometry"/>
                </mxCell>
                <mxCell id="25" value="" style="endArrow=classic;html=1;fontSize=18;" parent="1" edge="1">
                    <mxGeometry width="50" height="50" relative="1" as="geometry">
                        <mxPoint x="450" y="270" as="sourcePoint"/>
                        <mxPoint x="737.5" y="270" as="targetPoint"/>
                    </mxGeometry>
                </mxCell>
                <mxCell id="26" value="" style="endArrow=none;dashed=1;html=1;fontSize=16;entryX=0;entryY=0.96;entryDx=0;entryDy=0;entryPerimeter=0;" parent="1" edge="1">
                    <mxGeometry width="50" height="50" relative="1" as="geometry">
                        <mxPoint x="150" y="350" as="sourcePoint"/>
                        <mxPoint x="440" y="350" as="targetPoint"/>
                    </mxGeometry>
                </mxCell>
                <mxCell id="27" value="" style="endArrow=classic;html=1;fontSize=18;" parent="1" edge="1">
                    <mxGeometry width="50" height="50" relative="1" as="geometry">
                        <mxPoint x="448.75" y="480" as="sourcePoint"/>
                        <mxPoint x="738.75" y="481" as="targetPoint"/>
                    </mxGeometry>
                </mxCell>
                <mxCell id="29" value="view updated request status" style="text;html=1;align=center;verticalAlign=middle;whiteSpace=wrap;rounded=0;fontSize=16;" parent="1" vertex="1">
                    <mxGeometry x="474.38" y="590" width="242.5" height="30" as="geometry"/>
                </mxCell>
                <mxCell id="30" value="" style="endArrow=classic;html=1;fontSize=18;exitX=1;exitY=0.762;exitDx=0;exitDy=0;exitPerimeter=0;" parent="1" source="2" edge="1">
                    <mxGeometry width="50" height="50" relative="1" as="geometry">
                        <mxPoint x="150" y="560" as="sourcePoint"/>
                        <mxPoint x="440" y="561" as="targetPoint"/>
                    </mxGeometry>
                </mxCell>
            </root>
        </mxGraphModel>
    </diagram>
</mxfile>